<svg xmlns="http://www.w3.org/2000/svg" xmlns:xlink="http://www.w3.org/1999/xlink" width="25" height="25" viewBox="0 0 25 25"><defs><path id="gkwxa" d="M80.82 1083.034l4.017-4.464 4.019 4.464"/><path id="gkwxb" d="M87.07 1080.68l2.005-2.11 4.245 4.464"/><path id="gkwxc" d="M88.86 1097.77a1.34 1.34 0 1 1 2.68 0 1.34 1.34 0 0 1-2.68 0z"/><path id="gkwxd" d="M82.61 1097.77a1.34 1.34 0 1 1 2.68 0 1.34 1.34 0 0 1-2.68 0z"/><path id="gkwxe" d="M71 1076.785a.895.895 0 1 1 1.79 0 .895.895 0 0 1-1.79 0z"/><path id="gkwxf" d="M91.533 1096.433H83.83c-1.722 0-1.975-.857-2.278-1.977l-4.027-15.851c-.362-1.19-.872-1.815-2.28-1.815H71.89"/><path id="gkwxg" d="M79.04 1083.04h15.179l-3.521 9.821h-9.401"/></defs><g><g transform="translate(-71 -1075)"><g/><g><use fill="#fff" fill-opacity="0" stroke="#373e50" stroke-linecap="round" stroke-linejoin="round" stroke-miterlimit="50" stroke-width="2" xlink:href="#gkwxa"/></g><g><use fill="#fff" fill-opacity="0" stroke="#373e50" stroke-linecap="round" stroke-linejoin="round" stroke-miterlimit="50" stroke-width="2" xlink:href="#gkwxb"/></g><g><use fill="#fff" fill-opacity="0" stroke="#373e50" stroke-miterlimit="50" stroke-width="2" xlink:href="#gkwxc"/></g><g><use fill="#fff" fill-opacity="0" stroke="#373e50" stroke-miterlimit="50" stroke-width="2" xlink:href="#gkwxd"/></g><g><use fill="#373e50" xlink:href="#gkwxe"/></g><g><use fill="#fff" fill-opacity="0" stroke="#373e50" stroke-linecap="round" stroke-linejoin="round" stroke-miterlimit="50" stroke-width="1.99" xlink:href="#gkwxf"/></g><g><use fill="#fff" fill-opacity="0" stroke="#373e50" stroke-linecap="round" stroke-linejoin="round" stroke-miterlimit="50" stroke-width="1.99" xlink:href="#gkwxg"/></g></g></g></svg>