<svg xmlns="http://www.w3.org/2000/svg" xmlns:xlink="http://www.w3.org/1999/xlink" width="24" height="36" viewBox="0 0 24 36"><defs><path id="xuf3a" d="M239.32 892.495c0-.5.394-.905.88-.905s.88.405.88.905-.394.905-.88.905a.893.893 0 0 1-.88-.905z"/><path id="xuf3b" d="M240.434 891.673v-1.348h.777v-.49h-.777V889h-.447v.836h-.777v.489h.777v1.348"/><path id="xuf3c" d="M237.56 895.14c0-1.497 1.186-2.71 2.65-2.71s2.65 1.213 2.65 2.71c0 1.497-1.186 2.71-2.65 2.71s-2.65-1.213-2.65-2.71z"/><path id="xuf3d" d="M237.234 895.382v.843h5.964v-.843z"/><path id="xuf3e" d="M237.661 896.526l.031 14.372h5.056v-14.372z"/><path id="xuf3f" d="M243.002 896.53l.031 14.287h5.056V896.53z"/><path id="xuf3g" d="M229.926 893.585v2.649h5.883v-2.65h-.84v1.325h-.84v-1.324h-.84v1.324h-.842v-1.324h-.84v1.324h-.84v-1.324h-.841z"/><path id="xuf3h" d="M232.383 891.883h-.97l.485-.86-.485-.858h.97l.485-.86.485.86h.97l-.486.858.485.86h-.97l-.484.858z"/><path id="xuf3i" d="M243.652 896.53l.031 14.287h5.056V896.53z"/><path id="xuf3j" d="M230.576 893.585v2.649h5.883v-2.65h-.84v1.325h-.84v-1.324h-.84v1.324h-.842v-1.324h-.84v1.324h-.84v-1.324h-.841z"/><path id="xuf3k" d="M233.043 891.883h-.97l.485-.86-.485-.858h.97l.485-.86.485.86h.97l-.486.858.485.86h-.97l-.484.858z"/><path id="xuf3l" d="M229.99 908.9h20.094c0 3.46.361 6.264 1.204 9.486-1.89 3.532-3.366 6.24-11.238 6.371-7.873.131-11.3-6.371-11.3-6.371 1.24-4.471 1.24-4.471 1.24-9.486zm9.916 15.576v-12.443c-1.678 0-2.922 1.54-2.922 2.902v9.255m6.003 0v-9.255c0-1.361-1.239-2.902-2.911-2.902v12.463z"/><path id="xuf3m" d="M229.852 905.738v3.01h20.71v-3.01h-1.59v1.445h-1.6v-1.445h-1.588v1.445h-1.6v-1.445h-1.589v1.445h-1.588v-1.445h-1.6v1.445h-1.59v-1.445h-1.592v1.445h-1.594v-1.445h-1.595v1.445h-1.592v-1.445z"/></defs><g><g transform="translate(-228 -889)"><g><g><g><use xlink:href="#xuf3a"/></g><g><use xlink:href="#xuf3b"/></g><g><use xlink:href="#xuf3c"/></g><g><use xlink:href="#xuf3d"/></g></g><g><use xlink:href="#xuf3e"/></g><g><g transform="matrix(-1 0 0 1 481 0)"><g><g transform="matrix(-1 0 0 1 468 0)"><g><use xlink:href="#xuf3f"/></g></g><g><use xlink:href="#xuf3g"/></g><g><use xlink:href="#xuf3h"/></g></g></g><g><g><g transform="matrix(-1 0 0 1 494 0)"><g><use xlink:href="#xuf3i"/></g></g><g><use xlink:href="#xuf3j"/></g><g><use xlink:href="#xuf3k"/></g></g></g><g><use xlink:href="#xuf3l"/></g></g><g><use xlink:href="#xuf3m"/></g></g></g></g></svg>