<svg xmlns="http://www.w3.org/2000/svg" xmlns:xlink="http://www.w3.org/1999/xlink" width="31" height="40" viewBox="0 0 31 40"><defs><path id="a" d="M225.096 984.68l-.073-1.248c.148-.946 3.13-.197 3.834-.19-.056-.17.063-1.311.183-1.513.365-.645 1.082-1.266 1.587-1.837.848-.957 1.28-2.86 1.103-4.302-.666.205-1.756.617-2.37.947-.465.248-.166.157-.471.513-.954.268-2.07.108-2.068-1.055.002-.837.864-1.342 1.393-1.906.74-.79-.128-.578 1.163-2.02l.71-.904c.197-.426-.083-.71.353-1.165.532.38.342.873.94.747 1.269-.31 4.036-.78 5.135.514.007.004-1.095-.523-1.007-.223.054.176 2.684 1.256 3.479 2.493.558.871-.464.71 1.415 2.766-.322-.065-.373-.126-.612-.208.698.598 1.126 1.122 1.585 2.226l-.348-.176c-.113-.036-.08-.043-.204-.033-.18.014-.137.026-.207.076.116.883.38 1.327.77 2.012l-1.043-.314c.306.732.465 2.622 1.036 3.002-1.115.043-1.156-.787-1.615-1.081-.33.948.642 2.01 1.15 2.549-2.508.09-3.34-1.587-3.488-3.775-.142 1.914-.014 3.302 1.67 5.147 1.301 1.581 4.086 2.062 5.915 4.047.186.204.346.41.483.618 2.512.056 3.435 2.882 3.967 3.072.194.068.176.007.42.115 1.787.786 2.79 5.144 3.278 6.21.668 1.459 1.32 1.463 2.392 2.3-1.662-.016-2.718-.607-3.494-1.407.534 1.946 3.699 1.88 3.168 3.745-2.078-2.673-6.252-.567-7.472-6.932-.542-2.832-1.126-3.994-1.612-4.543-.14 2.243-1.69 4.426-1.143 5.944.337.935 1.152 1.435 1.33 2.102.128.482-.047.452-.04.789.014.693.261.77.113 1.673-.103.634-.513 3.193.188 3.379.518 1.28-.242.822-.006 2.258l-2.943.908c-.115-1.848.96-1.73.774-4.572-.091-1.382-.044-3.202-.752-3.835-3.503-3.15-8.075-5.356-2.115-9.278-.67.344-1.684.441-2.504 1.595-.753-.405-1.325-.947-2.155-1.299-1.089-.46-3.466-2.24-4.469-3.163-1.301-1.199-1.723-2.056-2.529-2.891-.442-.46-2.762-1.107-3.498-1.085-.314.677-.209 1.296-.007 2.149.148.631.932.823 1.52.974.78.201.4.376.517.507.16.175.664-.132 1.008.084.73.457.374 1.599.208 2.047-.543-.078-.641-.165-1.05-.492-.767-.61-.607-.153-1.107-.462-.405-.248-1.304-1.362-1.845-1.795-1.141-.915-.36-1.609-.54-3.804z"/></defs><use xlink:href="#a" transform="translate(-225 -970)"/></svg>