<svg xmlns="http://www.w3.org/2000/svg" xmlns:xlink="http://www.w3.org/1999/xlink" width="37" height="36" viewBox="0 0 37 36"><defs><path id="j5kaa" d="M253.01 806.022c-3.768 1.255-5.463-1.307-8.05-1.278-2.2.024-2.497 1.359-3.41 3.162-.855-1.46-.877-2.921-3.037-3.348-1.524-.301-3.014.417-4.463.868-.998.371-2.627-.269-3.905-1.426.094 2.208 1.302 2.986 3.16 3.41 1.725.393 3.114-.896 4.464-.868 2.906.06 3.003 4.036 2.665 7.749-.247 2.725-5.386 1.972-7.81 1.736 1.426-1.117.682-2.362 1.736-3.224-2.576.231-1.037 1.336-2.666 2.976-.439.441-2.643.03-3.595-.062 1.189-1.612.048-1.612.93-3.162-2.119.52-1.329 2.972-2.48 3.1-1.432.158-2.463 1.805-2.542 3.162-.095 1.627.818 2.657 2.107 3.781.633.552 1.35 1.33 2.976 1.86-2.405.289-1.727.89-2.294 1.983 1.517-.345 1.123-1.438 3.286-1.363 1.766.061 2.131.347 2.045 1.24-.239 2.483-1.596 4.075-2.851 4.773-1.623.904-2.436.61-2.604 2.79-.084 1.097-.303 1.823-.217 3.44.025.465-2.025-.237-1.394.9-.425.954.682.3 1.146.34.715.063-.33 1.819.9 1.364 1.086.28.272-1.295.588-1.178.597.22.345 1.423 1.116.558 1.256-.215-.716-1.245-.217-1.209.871.063 1.511.145 1.023-.62.913-1.032-1.103-.044-1.147-.65-.127-1.762.863-2.51 2.138-3.07 2.012-.88 3.583-2.375 5.146-3.793-.308 1.857 2.112 2.056 2.014 2.926-.251 2.238-1.02 1.546-.868 2.446.222 1.312 1.542 1.142 2.521 1.796 1.179.476-.46 1.156.852 1.234.676 1.01.899-.965 1.338-.517.437.446-.391 1.826.54 1.414 1.048.559.487-1.601.824-1.166.457.589.689 1.61 1.057.569 1.248-.481-1.144-1.223-.605-1.284.582-.066 1.28-.183.576-.678-.013-1.034-.91-.323-1.531-.118-.693.228-1.423-.397-1.976-1.093-.818-1.029-.305-2.012.372-3.224 1.049-1.88-2.44-3.899-1.922-4.215.473-.29 1.024.082 1.612.62 1.655 1.513 2.362 1.91 3.533 2.851 1.421 1.254 1.613.035 1.797-1.302.06-.428.71.1.997 1.177.273 1.027.555 2.23 2.165 2.7 1.648.482 3.278 2.27 6.105 3.531.537.317-1.007.557.212.808.526 1.1 1.22-.367 1.567.22.304.515-.184 1.73.817 1.034 1.009.232.112-1.21.35-1.131.277.094.788 1.222.816.094 1.322-.675-.712-.979-.467-1.232.31-.32 1.316.116.547-.78.064-1.171-1.099.08-1.64-.098-1.963-.645-3.822-2.633-4.588-3.782-.694-1.04-1.64-1.405-1.55-2.108 1.075.065 2.668-.958 3.596-1.735 1.3-1.09 2.09-2.073 3.099-4.123.535-1.089.919-3.263 1.209-3.13.41.187.96 1.157.744-.124 1.162-.533-.54-.892-.148-1.032.56-.202 1.675.358 1.14-.55.257-1.557-1.34.11-1.272-.34.065-.427 1.312-1.102.158-1.34-.577-.724-.912 1.139-1.15.72-.292-.517.364-1.986-.889-1.164-1.342-.442.805 2.164-.288 3.767-1.718 2.52-3.388 3.953-4.897 4.898-.68.426-1.838-2.835-1.178-2.914 1.604-.191 3.246-1.589 1.922-1.645-.822-.035-1.45.828-2.976.157-1.23-.54-1.671-2.062-.558-2.851.644-.457 1.83-.346 3.534-.465.762-.054 1.5-.366.867-1.395.963-.372.858-.848.093-1.023-.826-.189-1.081-.375-2.448-.589-1.082-.17-1.066-.795-2.542-.93-1.328-.121-1.957.779-2.417.186-.573-.738-1.315-1.504-1.798-.683-.99 1.686 1.034 2.42 1.054 3.348-1.332-.422-2.91-.012-2.728 1.736-1.3.66-.966 1.88-1.426 3.161.66.046 1.586-.531 1.798.558-.802.531-4.04.778-6.075.806-3.037.042-5.962-.19-8.369-1.115-1.183-.456-3.618-1.89-3.595-3.72.041-3.33 4.124-1.522 6.385-1.364 3.075.215 4.423.087 6.571-.062 2.788-.193 3.648-2.144 3.657-3.595.015-2.22.014-4.464.434-5.64.537-1.504 1.677-2.573 5.021-.869 2.751 1.402 4.484.377 5.262-1.573z"/></defs><g><g transform="translate(-224 -804)"><use xlink:href="#j5kaa"/></g></g></svg>