<svg xmlns="http://www.w3.org/2000/svg" xmlns:xlink="http://www.w3.org/1999/xlink" width="15" height="15" viewBox="0 0 15 15"><defs><path id="a" d="M1126.995 9.286a4.7 4.7 0 0 1 4.709 4.709 4.7 4.7 0 0 1-4.71 4.709 4.7 4.7 0 0 1-4.708-4.71 4.7 4.7 0 0 1 4.709-4.708zM1127 8a6.01 6.01 0 0 0-6 6c0 3.306 2.694 6 6 6a5.96 5.96 0 0 0 3.756-1.333l4.145 4.145a.645.645 0 0 0 .91-.91l-4.137-4.14a5.981 5.981 0 0 0 1.325-3.762c0-3.306-2.693-6-6-6z"/></defs><use fill="#4a4a4a" xlink:href="#a" transform="translate(-1121 -8)"/></svg>